<svg xmlns="http://www.w3.org/2000/svg" viewBox="0 0 64 64">
  <defs>
    <linearGradient id="g" x1="0" y1="0" x2="1" y2="1">
      <stop offset="0" stop-color="#74b637"/>
      <stop offset="1" stop-color="#299fa5"/>
    </linearGradient>
  </defs>
  <circle cx="32" cy="32" r="32" fill="url(#g)"/>
  <path fill="#fff" d="M18 42v-8c0-2 1-3.5 2.5-4.5l4-8c1-2 2.8-3.5 5.5-3.5h8c3 0 5 1.2 6.5 3.5l3.5 5.5c2.5.6 4 2.3 4 4.8V42z"/>
  <path fill="#299fa5" d="M26.5 23.5c.5-1 1.3-1.5 2.5-1.5h3.5v7H23.5zM36 22h2.5c1.4 0 2.4.6 3.1 1.6l3.2 5.4H36z"/>
  <circle cx="25" cy="42" r="5" fill="#0f2238" stroke="#fff" stroke-width="2.5"/>
  <circle cx="44" cy="42" r="5" fill="#0f2238" stroke="#fff" stroke-width="2.5"/>
</svg>
